<svg xmlns="http://www.w3.org/2000/svg" version="1.1" xmlns:xlink="http://www.w3.org/1999/xlink" xmlns:svgjs="http://svgjs.com/svgjs" width="1440" height="560" preserveAspectRatio="none" viewBox="0 0 1440 560"><g mask="url(&quot;#SvgjsMask1015&quot;)" fill="none"><rect width="1440" height="560" x="0" y="0" fill="#0e2a47"></rect><path d="M590.767,527.387C645.404,525.864,678.274,473.028,704.52,425.084C729.359,379.71,750.867,326.705,725.22,281.782C699.425,236.599,642.714,222.938,590.767,225.835C544.099,228.438,504.296,255.528,480,295.458C454.547,337.29,444.373,387.56,465.476,431.746C489.745,482.562,534.475,528.956,590.767,527.387" fill="rgba(28, 83, 142, 0.4)" class="triangle-float1"></path><path d="M331.96937686601404 83.82502598687729L303.9544357126612-20.728157768487563 199.40125195729638 7.2867833848652594 227.4161931106492 111.83996714023012z" fill="rgba(28, 83, 142, 0.4)" class="triangle-float2"></path><path d="M1392.0351422362407 337.93606292134086L1472.9805106569393 222.3340963563141 1357.3785440919125 141.3887279356156 1276.433175671214 256.99069450064235z" fill="rgba(28, 83, 142, 0.4)" class="triangle-float3"></path><path d="M1312.9217758328646 297.14872650626637L1275.855489130023 224.4020428232035 1185.2686069568497 316.37481471899736z" fill="rgba(28, 83, 142, 0.4)" class="triangle-float2"></path><path d="M525.0725175116527 263.482612242238L453.7670305557198 215.3864539928647 417.2755366596263 346.39276355145074z" fill="rgba(28, 83, 142, 0.4)" class="triangle-float3"></path><path d="M1465.972868046766 323.1527424923835L1349.0599147406815 258.3468342427459 1284.2540064910438 375.25978754883045 1401.1669597971284 440.065695798468z" fill="rgba(28, 83, 142, 0.4)" class="triangle-float1"></path><path d="M86.5151964927905 53.7621205374996L137.85515595791946 233.45197866545084 253.37006475445952 117.93706986891071z" fill="rgba(28, 83, 142, 0.4)" class="triangle-float3"></path><path d="M1075.399,46.056C1094.173,46.755,1115.811,45.665,1125.294,29.447C1134.828,13.142,1125.623,-6.566,1115.485,-22.503C1106.272,-36.985,1092.543,-48.153,1075.399,-48.984C1056.704,-49.89,1037.417,-42.901,1027.965,-26.746C1018.434,-10.457,1021.25,10.144,1031.552,25.956C1040.96,40.395,1058.178,45.415,1075.399,46.056" fill="rgba(28, 83, 142, 0.4)" class="triangle-float3"></path><path d="M1154.377,321.606C1194.698,319.045,1218.995,280.115,1236.223,243.57C1250.56,213.158,1249.908,179.856,1235.528,149.464C1218.236,112.917,1194.673,73.884,1154.377,70.586C1109.797,66.938,1068.06,94.842,1046.421,133.988C1025.437,171.948,1030.664,217.657,1052.296,255.252C1073.989,292.953,1110.967,324.363,1154.377,321.606" fill="rgba(28, 83, 142, 0.4)" class="triangle-float1"></path><path d="M906.747,366.847C956.682,367.266,1011.978,362.385,1038.454,320.045C1066.091,275.849,1053.953,219.192,1026.967,174.595C1001.029,131.73,956.845,101.755,906.747,102.388C857.643,103.008,816.745,135.34,791.674,177.566C765.977,220.847,752.665,274.857,778.813,317.867C804.238,359.687,857.807,366.436,906.747,366.847" fill="rgba(28, 83, 142, 0.4)" class="triangle-float3"></path><path d="M399.15319380441014 499.8996453506673L405.18453338947216 413.64747086379936 318.9323589026042 407.6161312787374 312.9010193175422 493.86830576560527z" fill="rgba(28, 83, 142, 0.4)" class="triangle-float3"></path><path d="M803.107,476.477C836.702,476.731,870.013,460.403,885.064,430.367C898.965,402.626,884.507,371.883,868.98,345.018C853.471,318.184,834.045,290.436,803.107,288.566C769.524,286.536,738.443,306.868,721.828,336.123C705.413,365.025,706.61,400.382,723.267,429.145C739.885,457.841,769.948,476.227,803.107,476.477" fill="rgba(28, 83, 142, 0.4)" class="triangle-float1"></path><path d="M204.85739478575624 415.12728431005127L159.3907231503597 454.6508589753467 241.4094209660011 503.08907909579375z" fill="rgba(28, 83, 142, 0.4)" class="triangle-float1"></path><path d="M366.73210656138235 141.18571525744318L467.3407446934228 158.92573265245636 485.08076208843596 58.317094520415935 384.47212395639554 40.57707712540275z" fill="rgba(28, 83, 142, 0.4)" class="triangle-float1"></path><path d="M1310.2139492324693-53.64299862372099L1265.771973177281 82.6930980229866 1388.8202066760243 58.77494435665075z" fill="rgba(28, 83, 142, 0.4)" class="triangle-float2"></path><path d="M1104.1545560830004 491.7275769843922L1163.6184705820363 553.3042630247944 1226.2515423931216 433.3200482560395z" fill="rgba(28, 83, 142, 0.4)" class="triangle-float2"></path><path d="M1072.5923518638929 377.1300129983151L1117.9135799400574 284.20772496866357 955.8695338574978 262.6870268692427z" fill="rgba(28, 83, 142, 0.4)" class="triangle-float1"></path></g><defs><mask id="SvgjsMask1015"><rect width="1440" height="560" fill="#ffffff"></rect></mask><style>
            @keyframes float1 {
                0%{transform: translate(0, 0)}
                50%{transform: translate(-10px, 0)}
                100%{transform: translate(0, 0)}
            }

            .triangle-float1 {
                animation: float1 5s infinite;
            }

            @keyframes float2 {
                0%{transform: translate(0, 0)}
                50%{transform: translate(-5px, -5px)}
                100%{transform: translate(0, 0)}
            }

            .triangle-float2 {
                animation: float2 4s infinite;
            }

            @keyframes float3 {
                0%{transform: translate(0, 0)}
                50%{transform: translate(0, -10px)}
                100%{transform: translate(0, 0)}
            }

            .triangle-float3 {
                animation: float3 6s infinite;
            }
        </style></defs></svg>