<svg width="27" height="27" viewBox="0 0 27 27" fill="none" xmlns="http://www.w3.org/2000/svg">
<path fill-rule="evenodd" clip-rule="evenodd" d="M5.72354 2.45632C10.3897 -0.818772 16.6512 -0.818772 21.2772 2.45632L17.5682 6.17076C15.0159 4.77283 11.9052 4.77283 9.39237 6.17076L5.68337 2.45632H5.72354ZM10.3098 10.2847C12.0645 8.52744 14.9759 8.52744 16.7309 10.2847C18.4857 12.0421 18.4857 14.9577 16.7309 16.7153C14.9762 18.4729 12.0648 18.4726 10.3098 16.7153C8.55506 14.958 8.55506 12.0424 10.3098 10.2847ZM24.5473 5.69177C27.8176 10.3647 27.8176 16.6355 24.5473 21.2683L20.8383 17.5539C22.2342 14.9978 22.2342 11.8825 20.8383 9.36598L24.5473 5.65154V5.69177ZM21.277 24.5437C16.6109 27.8188 10.3493 27.8188 5.7233 24.5437L9.4323 20.8292C11.9846 22.2272 15.0954 22.2272 17.6082 20.8292L21.3172 24.5437H21.277ZM2.45272 21.2686C-0.817572 16.5956 -0.817572 10.3249 2.45272 5.69208L6.16171 9.40652C4.76583 11.9626 4.76583 15.0779 6.16171 17.5944L2.45272 21.3088V21.2686Z" fill="#282DE2"/>
</svg>
